<mxfile host="app.diagrams.net" modified="2022-12-04T17:42:18.356Z" agent="5.0 (Macintosh; Intel Mac OS X 10_15_7) AppleWebKit/537.36 (KHTML, like Gecko) Chrome/102.0.0.0 Safari/537.36" version="20.6.0" etag="TT2gualHaZP8xorPEGvu" type="github">
  <diagram id="TmZ8TIDr6G8HcvbQyJt6" name="Page-1">
    <mxGraphModel dx="1538" dy="740" grid="1" gridSize="10" guides="1" tooltips="1" connect="1" arrows="1" fold="1" page="1" pageScale="1" pageWidth="850" pageHeight="1100" math="0" shadow="0">
      <root>
        <mxCell id="0" />
        <mxCell id="1" parent="0" />
        <mxCell id="wn4Z0gV1rq7Zk3F0k5iD-1" value="&lt;h1&gt;&lt;font style=&quot;font-size: 18px;&quot;&gt;Functional Req&lt;/font&gt;&lt;/h1&gt;&lt;p&gt;Team management&lt;/p&gt;&lt;p&gt;Form management (multi-lingual)&lt;/p&gt;&lt;p&gt;Data collection&lt;/p&gt;" style="text;html=1;strokeColor=#E3E3E3;fillColor=#F0F0F0;spacing=5;spacingTop=-20;whiteSpace=wrap;overflow=hidden;rounded=0;" vertex="1" parent="1">
          <mxGeometry x="20" y="60" width="330" height="120" as="geometry" />
        </mxCell>
        <mxCell id="wn4Z0gV1rq7Zk3F0k5iD-2" value="&lt;h1&gt;&lt;font style=&quot;font-size: 18px;&quot;&gt;Non-Funtional Req&lt;/font&gt;&lt;/h1&gt;&lt;p&gt;High Availability and Reliable&lt;/p&gt;&lt;p&gt;Zero Data miss, (form submitted means data should be capture in all situation, i mean internet issue)&lt;/p&gt;&lt;p&gt;&amp;nbsp;&lt;/p&gt;" style="text;html=1;strokeColor=#E3E3E3;fillColor=#F0F0F0;spacing=5;spacingTop=-20;whiteSpace=wrap;overflow=hidden;rounded=0;" vertex="1" parent="1">
          <mxGeometry x="450" y="60" width="360" height="120" as="geometry" />
        </mxCell>
        <mxCell id="wn4Z0gV1rq7Zk3F0k5iD-3" value="&lt;h1&gt;Collect Data X&lt;/h1&gt;" style="text;html=1;strokeColor=#171717;fillColor=#FAFAFA;spacing=5;spacingTop=-20;whiteSpace=wrap;overflow=hidden;rounded=0;" vertex="1" parent="1">
          <mxGeometry x="307" y="10" width="180" height="40" as="geometry" />
        </mxCell>
      </root>
    </mxGraphModel>
  </diagram>
</mxfile>
